<?xml version="1.0" encoding="utf-8"?>
<!-- Generator: Adobe Illustrator 25.0.0, SVG Export Plug-In . SVG Version: 6.00 Build 0)  -->
<svg version="1.1" id="Слой_1" xmlns="http://www.w3.org/2000/svg" xmlns:xlink="http://www.w3.org/1999/xlink" x="0px" y="0px"
	 viewBox="0 0 595.28 530.07" style="enable-background:new 0 0 595.28 530.07;" xml:space="preserve">
<g>
	<path d="M270.86,205.34c-2.84-4.04-2.58-5.59,0.84-8.63c3.15-2.79,6.75-5.35,9.05-8.76c5.26-7.76,12.65-10.81,21.49-11.32
		c4.28-0.25,8.6,0.04,12.88-0.3c2.03-0.16,4.29-0.82,5.9-1.99c3.16-2.3,4.92-5.69,5.46-9.62c0.47-3.47-0.6-5.26-4.01-6.09
		c-2.33-0.57-4.74-0.92-7.13-1.08c-15.6-1.07-31.15-0.57-46.68,1.22c-2.03,0.24-4.1,0.23-6.01,0.34c-0.24-0.34-0.39-0.46-0.41-0.6
		c-1.04-6.98-0.88-6.74,4.96-10.45c3.96-2.51,7.78-5.47,10.98-8.86c3.81-4.03,8.12-6.42,13.56-6.38c5.4,0.03,10.8,0.59,16.21,0.72
		c1.55,0.04,3.29-0.31,4.63-1.04c3.32-1.8,5.36-4.79,6.5-8.35c0.86-2.67,0.3-4.41-2.5-5.33c-4.22-1.39-8.59-2.77-12.97-3.1
		c-12.53-0.95-25.09-1.37-37.65-2.01c-0.6-0.03-1.2-0.11-2.14-0.2c0-1.76-0.23-3.57,0.1-5.28c0.17-0.87,1.19-1.91,2.07-2.27
		c6.21-2.5,11.9-5.8,16.88-10.3c2.69-2.43,5.9-3.61,9.49-3.29c5.46,0.48,11.02,0.69,16.33,1.9c5,1.13,11.32-5.09,11.15-9.44
		c-0.05-1.3-1.65-3.2-2.97-3.68c-4.66-1.71-9.42-3.43-14.3-4.21c-9.68-1.55-19.45-2.48-29.19-3.66c-0.75-0.09-1.5-0.18-2.6-0.32
		c0.44-2.87,0.8-5.58,1.32-8.25c0.1-0.5,0.85-0.94,1.38-1.27c4.17-2.52,8.47-4.85,12.5-7.58c2.16-1.47,4.23-2.6,6.88-2.32
		c4.77,0.51,9.58,0.83,14.29,1.65c4.82,0.84,8.88-1.22,10.61-5.9c0.81-2.19,0.16-3.84-1.97-4.58c-4.7-1.62-9.41-3.3-14.23-4.48
		c-4.84-1.18-9.81-1.78-14.73-2.65c-1.01-0.18-2-0.41-3.03-1.06c0.77-0.11,1.53-0.27,2.3-0.32c19.94-1.27,38.54,2.67,55.08,14.36
		c3.01,2.12,5.77,4.65,8.39,7.25c32.9,32.75,65.83,65.47,98.59,98.36c11.87,11.91,18.73,26.65,20.94,43.16
		c3.61,26.99-2.94,51.25-22.34,71c-30.12,30.66-60.56,61.01-90.89,91.45c-0.66,0.66-1.67,1.25-2.58,1.36
		c-10.17,1.22-20.34,2.35-30.52,3.49c-0.93,0.1-1.87,0.13-3.16,0.22c-0.88-4.07-1.79-8.06-2.53-12.08c-0.1-0.52,0.6-1.36,1.15-1.79
		c6.53-5.11,11.8-11.31,15.93-18.47c2.39-4.15,5.81-6.9,10.29-8.54c6.75-2.47,13.67-4.15,20.85-4.54
		c7.61-0.41,11.28-3.28,13.37-10.7c1.91-6.8,0.01-9.95-6.97-9.97c-8.33-0.02-16.76,0.05-24.97,1.29
		c-12.99,1.96-25.84,4.86-38.72,7.51c-1.98,0.41-2.65-0.07-3.34-1.88c-1.89-4.97-1.65-8.6,2.95-12.65
		c4.51-3.97,7.76-9.59,10.83-14.91c2.68-4.65,6.11-7.92,10.95-10.05c6.55-2.87,13.49-3.99,20.46-5.1
		c7.63-1.21,12.26-6.46,12.59-14.25c0.2-4.66-1.62-7.04-6.27-6.87c-7.64,0.29-15.39,0.39-22.84,1.87
		c-13.56,2.69-26.93,6.32-40.38,9.56c-0.81,0.2-1.62,0.43-2.62,0.7c-0.76-2.65-1.75-5.08-2.06-7.59c-0.17-1.42,0.32-3.43,1.29-4.39
		c6.01-5.93,10.11-13.01,13.25-20.74c1.32-3.26,3.63-5.58,6.63-7.31c6.63-3.82,13.77-6.22,21.23-7.75
		c7.87-1.62,12.58-9.33,10.5-17.16c-0.64-2.4-2.32-3.86-5.27-3.53c-6.31,0.71-12.64,1.53-18.86,2.8
		c-14.97,3.05-29.21,8.46-43.4,13.99C272.72,204.69,271.76,205.01,270.86,205.34z"/>
	<path d="M244.66,52.21c-0.54,1.41-1.14,2.79-1.62,4.22c-1.39,4.18,0.1,7.08,4.39,7.86c2.17,0.4,2.71,1.29,2.34,3.27
		c-0.3,1.59-0.46,3.22-0.69,4.94c-2.27,0.2-4.5,0.2-6.66,0.62c-4.23,0.81-5.41,2.22-6.2,6.42c-1.16,6.15-2.35,12.3-3.64,18.42
		c-1.12,5.35-0.12,7.3,4.88,9.43c0.67,0.29,1.28,1.24,1.49,2c0.25,0.97,0.09,2.05,0.06,3.08c-0.12,3.35-0.49,3.74-3.91,4.12
		c-4.97,0.55-7.98,3.54-7.95,8.45c0.04,6.92-0.63,13.71-2.2,20.47c-1.27,5.44,1.72,9.06,7.29,9.38c1.45,0.08,2.92,0.01,4.83,0.01
		c0.22,2.74,0.5,5.34,0.55,7.95c0.01,0.47-0.88,1.2-1.49,1.39c-1.47,0.46-3.03,0.63-4.53,0.99c-4.78,1.16-7.14,4.14-7.13,9.02
		c0,1.98,0.2,3.96,0.17,5.94c-0.09,5.75,0.03,11.53-0.47,17.24c-0.66,7.55,3.52,11.72,11,10.4c0.68-0.12,1.35-0.28,2.04-0.34
		c1.72-0.16,4.77-0.79,4.96-0.32c1.18,2.99,1.75,6.22,2.42,9.39c0.05,0.25-0.57,0.78-0.98,0.98c-6.04,3.02-7.99,7.52-5.67,13.71
		c2.74,7.28,4.77,14.66,5.27,22.5c0.48,7.46,6.1,10.8,13.15,8.33c1.6-0.56,3.23-1.07,5.09-1.68c0.3,1.25,0.55,2.23,0.77,3.21
		c0.33,1.45-0.01,2.48-1.64,2.92c-1.07,0.29-2.09,0.8-3.08,1.3c-5.91,3.01-7.77,6.52-5.89,12.84c2.32,7.76,3.28,15.64,3.46,23.67
		c0.02,0.86,0.19,1.71,0.32,2.56c0.95,6.08,5.51,9.29,11.52,8c2.01-0.43,3.96-1.15,5.93-1.77c1.96-0.62,2.87,0.28,3.28,2.1
		c0.38,1.65,1.2,3.09-1.38,4.05c-7.42,2.76-9.3,6.25-7.46,13.99c1.65,6.92,2.39,13.88,2.22,20.98c-0.05,2.05,0.14,4.13,0.44,6.17
		c0.68,4.66,4.56,7.65,9.2,6.95c2.53-0.38,5.01-1.19,7.48-1.93c1.39-0.42,2.14-0.05,2.46,1.33c0.1,0.42,0.28,0.82,0.37,1.23
		c1.23,5.51,1.04,4.98-3.2,6.09c-4.2,1.11-6.64,4.13-7.17,8.52c-0.18,1.52-0.25,3.06-0.41,5.1c-1.98-0.34-3.83-0.5-5.59-0.99
		c-13.47-3.7-25.76-9.49-35.85-19.5c-16.32-16.2-32.87-32.16-49.15-48.4c-16.16-16.11-32.16-32.39-48.14-48.68
		c-17.7-18.05-24.26-40.03-22.76-64.89c0.86-14.21,5.57-27.11,13.25-38.87c3.31-5.07,7.44-9.71,11.72-14.02
		c31.87-32.06,63.87-64.01,95.87-95.94c1.81-1.81,4.02-3.22,6.05-4.81C244.28,51.82,244.47,52.02,244.66,52.21z"/>
	<g>
		<g>
			<path d="M152.08,416.01h-8.77v30.11h-4.68v-30.11h-8.77v-4.45h22.21V416.01z"/>
			<path d="M184.46,434.84c0.15,3.43-0.56,6.09-2.13,7.99c-2.09,2.42-5.71,3.7-10.85,3.84c-1.51,0.03-3.1-0.01-4.75-0.13
				c-1.65-0.11-3.43-0.32-5.34-0.6l0.05-34.21c1.18-0.14,2.38-0.26,3.59-0.34c1.21-0.09,2.45-0.13,3.72-0.13c0.42,0,0.84,0,1.25,0
				s0.82,0.01,1.25,0.04c1.15,0.06,2.27,0.25,3.36,0.58c1.09,0.33,2.12,0.8,3.09,1.4c2.33,1.59,3.59,3.6,3.77,6.05
				c0.09,1.61-0.08,3.05-0.52,4.32c-0.44,1.27-1.13,2.32-2.07,3.15c0.61,0.29,1.14,0.6,1.61,0.93c0.47,0.33,0.93,0.71,1.39,1.14
				c0.79,0.78,1.4,1.67,1.84,2.68C184.15,432.57,184.4,433.66,184.46,434.84z M170.06,415.49c-0.42,0-0.82-0.01-1.18-0.02
				c-0.36-0.01-0.71-0.02-1.05-0.02c-0.27,0-0.48,0-0.61,0c-0.14,0-0.25,0-0.34,0c-0.09,0-0.2,0-0.32,0s-0.3,0-0.54,0v9.76h3.22
				c5.3,0,7.86-1.84,7.68-5.53c-0.06-1.18-0.82-2.16-2.27-2.94C173.35,415.97,171.82,415.55,170.06,415.49z M170.61,442.23
				c4-0.14,6.68-0.92,8.04-2.33c0.48-0.52,0.85-1.17,1.09-1.96c0.24-0.79,0.33-1.75,0.27-2.87v0.04c-0.15-1.67-1.03-3.02-2.63-4.06
				h0.05c-1.54-0.95-3.24-1.42-5.09-1.42h-6.31v12.48C167.81,442.22,169.34,442.26,170.61,442.23z"/>
			<path d="M208.76,411.22c4.69,0,8.61,1.76,11.76,5.27c3.03,3.34,4.54,7.49,4.54,12.44c0,4.93-1.51,9.06-4.54,12.4
				c-3.15,3.48-7.07,5.23-11.76,5.23c-4.69,0-8.51-1.76-11.44-5.27h0.05c-2.82-3.34-4.22-7.46-4.22-12.35
				c0-4.95,1.41-9.1,4.22-12.44h-0.05C200.25,412.97,204.06,411.22,208.76,411.22z M208.76,442.27c3.33,0,6.09-1.27,8.27-3.8
				c2.27-2.68,3.41-5.86,3.41-9.55c0-1.9-0.29-3.64-0.86-5.23c-0.58-1.58-1.42-3.04-2.54-4.36c-2.15-2.5-4.91-3.76-8.27-3.76
				c-3.39,0-6.04,1.25-7.95,3.76c-2,2.5-3,5.7-3,9.59c0,1.84,0.26,3.58,0.79,5.2c0.53,1.63,1.26,3.07,2.2,4.34
				c0.97,1.21,2.13,2.15,3.47,2.81C205.63,441.94,207.12,442.27,208.76,442.27z"/>
			<path d="M232.33,445.99c0.97-1.04,2.02-2.15,3.16-3.32c1.13-1.18,2.3-2.38,3.5-3.59c1.2-1.21,2.39-2.4,3.59-3.59
				c1.2-1.18,2.34-2.29,3.43-3.32c-2.79-0.58-4.89-1.65-6.31-3.22c-1.42-1.57-2.26-3.87-2.5-6.89c0.03-1.61,0.25-3.04,0.66-4.28
				c0.41-1.24,1.05-2.29,1.93-3.15c2.15-2.16,5.62-3.3,10.4-3.41c0.97-0.03,2.16,0,3.59,0.09c1.42,0.09,3.04,0.24,4.86,0.48v34.34
				h-4.68v-13.61c-0.27,0.03-0.54,0.04-0.79,0.04c-0.26,0-0.51,0.01-0.75,0.04c-2.33,2.07-4.66,4.23-6.99,6.48
				c-2.33,2.25-4.63,4.55-6.9,6.91H232.33z M253.94,415.75c-0.58-0.06-1.09-0.09-1.54-0.11c-0.45-0.01-0.91-0.01-1.36,0.02
				c-3.72,0.15-6.25,0.85-7.58,2.12c-1,0.92-1.5,2.32-1.5,4.19c0.03,2.42,0.95,4.09,2.77,5.01c1.48,0.78,3.8,1.17,6.95,1.17
				c0.24-0.06,0.5-0.06,0.77,0h0.14c0.18,0,0.31,0,0.39,0c0.08,0,0.15,0,0.23,0c0.08,0,0.16,0,0.25,0s0.26-0.01,0.5-0.04V415.75z"/>
			<path d="M310.35,411.22c4.69,0,8.61,1.76,11.76,5.27c3.03,3.34,4.54,7.49,4.54,12.44c0,4.93-1.51,9.06-4.54,12.4
				c-3.15,3.48-7.07,5.23-11.76,5.23c-4.69,0-8.51-1.76-11.44-5.27h0.05c-2.82-3.34-4.22-7.46-4.22-12.35
				c0-4.95,1.41-9.1,4.22-12.44h-0.05C301.84,412.97,305.66,411.22,310.35,411.22z M310.35,442.27c3.33,0,6.09-1.27,8.27-3.8
				c2.27-2.68,3.41-5.86,3.41-9.55c0-1.9-0.29-3.64-0.86-5.23c-0.58-1.58-1.42-3.04-2.54-4.36c-2.15-2.5-4.91-3.76-8.27-3.76
				c-3.39,0-6.04,1.25-7.95,3.76c-2,2.5-3,5.7-3,9.59c0,1.84,0.26,3.58,0.79,5.2c0.53,1.63,1.26,3.07,2.2,4.34
				c0.97,1.21,2.13,2.15,3.47,2.81C307.22,441.94,308.72,442.27,310.35,442.27z"/>
			<path d="M358.99,446.12v-30.15H341.5v30.15h-4.63v-34.56h26.8v34.56H358.99z"/>
			<path d="M389.65,411.22c4.69,0,8.61,1.76,11.76,5.27c3.03,3.34,4.54,7.49,4.54,12.44c0,4.93-1.51,9.06-4.54,12.4
				c-3.15,3.48-7.07,5.23-11.76,5.23c-4.69,0-8.51-1.76-11.44-5.27h0.05c-2.82-3.34-4.22-7.46-4.22-12.35
				c0-4.95,1.41-9.1,4.22-12.44h-0.05C381.14,412.97,384.95,411.22,389.65,411.22z M389.65,442.27c3.33,0,6.09-1.27,8.27-3.8
				c2.27-2.68,3.41-5.86,3.41-9.55c0-1.9-0.29-3.64-0.86-5.23c-0.58-1.58-1.42-3.04-2.54-4.36c-2.15-2.5-4.91-3.76-8.27-3.76
				c-3.39,0-6.04,1.25-7.95,3.76c-2,2.5-3,5.7-3,9.59c0,1.84,0.26,3.58,0.79,5.2c0.53,1.63,1.26,3.07,2.2,4.34
				c0.97,1.21,2.13,2.15,3.47,2.81C386.52,441.94,388.01,442.27,389.65,442.27z"/>
			<path d="M440.96,423.18c-0.03,0.2-0.05,0.37-0.05,0.52c0,0.14,0,0.27,0,0.39c-0.36,3.31-1.98,6.05-4.86,8.21
				c-2.51,1.84-5.44,2.77-8.77,2.77c-0.58,0-1.27-0.01-2.09-0.04c-0.82-0.03-1.76-0.09-2.82-0.17v11.4h-4.63V411.6
				c2.54-0.2,4.6-0.35,6.18-0.45c1.57-0.1,2.66-0.15,3.27-0.15c1.82-0.09,3.5,0.08,5.06,0.5c1.56,0.42,2.97,1.1,4.25,2.05
				c0.7,0.55,1.29,1.07,1.77,1.58c0.48,0.5,0.88,0.99,1.18,1.45h-0.05c0.48,0.69,0.84,1.46,1.07,2.31c0.23,0.85,0.37,1.75,0.43,2.7
				c0,0.29,0.01,0.46,0.05,0.52V423.18z M436.24,423.14c0.03-0.46,0.03-0.79,0-0.99c-0.06-1.09-0.31-2.07-0.75-2.91
				c-0.44-0.85-1.01-1.56-1.7-2.14c-0.85-0.61-1.77-1.06-2.77-1.36c-1-0.3-2.07-0.42-3.22-0.37c-0.79,0-1.6,0.02-2.43,0.07
				c-0.83,0.04-1.83,0.11-2.98,0.2v8.25c-0.06,0.32-0.06,0.62,0,0.91v5.66c1.45,0.12,2.64,0.19,3.54,0.24
				c0.91,0.04,1.53,0.07,1.86,0.07c1.88,0.09,3.71-0.58,5.5-1.99c0.79-0.58,1.41-1.27,1.86-2.07c0.45-0.81,0.77-1.68,0.95-2.64
				c0.03-0.14,0.05-0.32,0.07-0.54c0.01-0.21,0.04-0.37,0.07-0.45V423.14z"/>
			<path d="M469.12,434.76h-11.49c-0.7,1.81-1.41,3.71-2.13,5.7c-0.73,1.99-1.42,3.87-2.09,5.66h-4.91l12.76-34.51h4l13.03,34.51
				h-4.91L469.12,434.76z M467.44,430.31c-0.39-1.04-0.75-1.96-1.07-2.79c-0.32-0.82-0.64-1.64-0.95-2.46
				c-0.32-0.82-0.64-1.67-0.98-2.55c-0.33-0.88-0.73-1.91-1.18-3.09c-0.33,0.92-0.67,1.81-1,2.68c-0.33,0.86-0.66,1.73-0.98,2.61
				c-0.32,0.88-0.65,1.77-1,2.68c-0.35,0.91-0.7,1.88-1.07,2.91H467.44z"/>
		</g>
		<g>
			<path d="M158.56,468.69c0,0.07,0,0.16,0,0.28c-0.01,0.12-0.01,0.22-0.01,0.29c-0.1,0.99-0.55,1.8-1.37,2.43
				c-0.74,0.56-1.57,0.84-2.51,0.84c-0.44,0-1.09-0.04-1.94-0.11v3.8h-0.66v-10.66c1.43-0.12,2.29-0.17,2.6-0.17
				c1.06-0.08,1.94,0.17,2.64,0.74c0.39,0.32,0.67,0.62,0.84,0.9c0.24,0.39,0.37,0.87,0.4,1.45
				C158.54,468.59,158.55,468.66,158.56,468.69z M157.87,469.01c0.01-0.21,0.01-0.36,0-0.44c-0.05-0.8-0.36-1.42-0.92-1.88
				c-0.61-0.5-1.32-0.72-2.14-0.66c-0.56,0-1.25,0.04-2.08,0.13v2.95c0,0.05,0,0.08,0,0.09c-0.01,0.12-0.01,0.25,0,0.37
				c0,0.04,0,0.08,0,0.11v2.09c1.14,0.09,1.84,0.13,2.08,0.13c0.67,0.04,1.34-0.2,1.99-0.74c0.57-0.45,0.91-1.05,1.02-1.79
				C157.85,469.23,157.86,469.11,157.87,469.01z"/>
			<path d="M162.95,470.08h4.66v0.66h-4.66v1.29v3.52l4.65-0.01v0.65h-5.31v-10.59h0.66h4.66v0.66h-4.66V470.08z"/>
			<path d="M176.6,472.42h-4.16l-1.33,3.76h-0.7l3.73-10.59h0.69l3.82,10.59h-0.7L176.6,472.42z M176.36,471.76l-1.87-5.18
				l-1.82,5.18H176.36z"/>
			<path d="M188.7,472.8c-0.01,0.04-0.01,0.11-0.01,0.21c-0.03,0.58-0.16,1.06-0.4,1.45c-0.17,0.28-0.45,0.58-0.84,0.9
				c-0.7,0.57-1.58,0.82-2.64,0.74c-0.31,0-1.18-0.06-2.6-0.17v-10.45h6.31v0.58h-5.64v3c0.85-0.07,1.5-0.11,1.94-0.11
				c0.94,0,1.77,0.28,2.51,0.84c0.81,0.63,1.27,1.44,1.37,2.43c0,0.07,0,0.17,0.01,0.29C188.7,472.63,188.7,472.73,188.7,472.8z
				 M188.01,472.48c-0.01-0.1-0.02-0.21-0.04-0.34c-0.12-0.74-0.46-1.34-1.02-1.79c-0.66-0.54-1.32-0.79-1.99-0.74
				c-0.25,0-0.94,0.05-2.08,0.13v2.08c0,0.03,0,0.06,0,0.11c-0.01,0.12-0.01,0.25,0,0.37c0,0.01,0,0.04,0,0.09v2.95
				c0.83,0.09,1.53,0.13,2.08,0.13c0.81,0.05,1.53-0.17,2.14-0.66c0.56-0.46,0.86-1.09,0.92-1.88
				C188.02,472.84,188.02,472.69,188.01,472.48z"/>
			<path d="M193.33,465.56v10.63h-0.66v-10.63H193.33z"/>
			<path d="M201.03,465.61h0.7l3.72,10.58h-0.7l-3.37-9.59l-3.45,9.59h-0.7L201.03,465.61z"/>
			<path d="M210.07,465.56v10.63h-0.66v-10.63H210.07z"/>
			<path d="M220.08,466.24h-2.76v9.94h-0.66v-9.94h-2.76v-0.66h6.19V466.24z"/>
			<path d="M229.01,472.42h-4.16l-1.33,3.76h-0.7l3.73-10.59h0.69l3.82,10.59h-0.7L229.01,472.42z M228.77,471.76l-1.87-5.18
				l-1.82,5.18H228.77z"/>
			<path d="M241.73,465.56v9.96h0.66v1.99h-0.66v-1.33h-7.62v-10.62h0.66v9.96h6.29v-9.96H241.73z"/>
			<path d="M248.24,465.56v10.63h-0.66v-10.63H248.24z"/>
			<path d="M253.56,465.55v9.37l5.8-9.37h0.66v10.62h-0.66v-9.36l-5.79,9.36h-0.01h-0.65l-0.01-10.62H253.56z M255.11,463.58
				c0.11,0.28,0.3,0.51,0.54,0.69c0.25,0.17,0.53,0.26,0.84,0.26c0.31,0,0.59-0.09,0.84-0.26c0.25-0.17,0.43-0.4,0.54-0.69
				l0.72,0.28c-0.19,0.48-0.49,0.82-0.88,1.03c-0.39,0.21-0.8,0.32-1.21,0.32c-0.42,0-0.82-0.11-1.22-0.32
				c-0.39-0.21-0.69-0.56-0.88-1.03L255.11,463.58z"/>
			<path d="M271.04,465.6v10.58h-0.65v-5.44h-5.35v5.44h-0.66V465.6h0.66v4.48h5.35v-4.48H271.04z"/>
			<path d="M279.26,465.46c1.35,0,2.49,0.53,3.4,1.59c0.88,1.05,1.33,2.33,1.33,3.85c0,1.51-0.44,2.79-1.33,3.84
				c-0.91,1.06-2.05,1.59-3.4,1.59c-1.34,0-2.43-0.53-3.27-1.59c-0.82-1.03-1.23-2.31-1.23-3.84c0-1.54,0.41-2.82,1.23-3.85
				C276.83,465.99,277.92,465.46,279.26,465.46z M279.26,475.71c1.17,0,2.14-0.47,2.91-1.4c0.77-0.93,1.15-2.07,1.15-3.41
				c0-1.35-0.38-2.48-1.15-3.41c-0.77-0.93-1.74-1.39-2.91-1.39c-1.16,0-2.1,0.47-2.81,1.41c-0.68,0.89-1.02,2.03-1.02,3.4
				c0,1.36,0.34,2.5,1.02,3.4C277.16,475.24,278.1,475.71,279.26,475.71z"/>
			<path d="M290.84,472.32h-3.48v-0.65h3.48V472.32z"/>
			<path d="M302.92,465.56v10.61h-0.65v-9.15l-3.37,6.97l-3.48-7.01v9.19h-0.66v-10.61h0.66l3.47,6.73l3.39-6.73H302.92z"/>
			<path d="M312.63,472.42h-4.16l-1.33,3.76h-0.7l3.73-10.59h0.69l3.82,10.59h-0.7L312.63,472.42z M312.39,471.76l-1.87-5.18
				l-1.82,5.18H312.39z"/>
			<path d="M322.05,466.09c-0.92,0-1.64,0.19-2.15,0.58c-0.51,0.39-0.87,0.77-1.08,1.13c-0.36,0.64-0.58,1.56-0.66,2.78
				c0,0.04,0,0.14,0,0.32c0,0.18,0,0.29,0,0.34c0.08,1.2,0.3,2.13,0.66,2.76c0.21,0.37,0.57,0.75,1.08,1.13s1.22,0.58,2.14,0.58
				c0.47,0,1.15-0.04,2.05-0.13v0.66c-0.83,0.08-1.47,0.12-1.9,0.12c-1.22,0-2.16-0.24-2.8-0.72c-0.57-0.41-0.97-0.85-1.22-1.3
				c-0.41-0.72-0.64-1.71-0.69-2.99h-0.01c0-0.01,0-0.09,0-0.24c0-0.1,0-0.17,0-0.21v-0.46h0.01c0.05-1.28,0.28-2.27,0.69-2.99
				c0.25-0.44,0.66-0.88,1.22-1.3c0.65-0.47,1.58-0.7,2.8-0.7c0.43,0,1.07,0.03,1.9,0.11v0.66
				C323.2,466.14,322.52,466.09,322.05,466.09z"/>
			<path d="M333.15,472.42H329l-1.33,3.76h-0.7l3.73-10.59h0.69l3.82,10.59h-0.7L333.15,472.42z M332.91,471.76l-1.87-5.18
				l-1.82,5.18H332.91z"/>
			<path d="M344.25,470.39l-5.42-4.81h1l5.06,4.49v-4.49v10.59v-5.43c-1.83,1.66-3.65,3.47-5.44,5.43h-0.88
				C340.43,474.09,342.32,472.16,344.25,470.39z M346.2,470.39l5.42-4.81h-1l-5.06,4.49v-4.49h-0.66v10.59h0.66v-5.43
				c1.83,1.66,3.65,3.47,5.44,5.43h0.88C350.03,474.09,348.13,472.16,346.2,470.39z"/>
			<path d="M361.9,465.6v10.58h-0.65v-5.44h-5.35v5.44h-0.66V465.6h0.66v4.48h5.35v-4.48H361.9z"/>
			<path d="M366.98,465.55v9.37l5.8-9.37h0.66v10.62h-0.66v-9.36l-5.79,9.36h-0.01h-0.65l-0.01-10.62H366.98z"/>
			<path d="M378.77,465.55v9.37l5.8-9.37h0.66v10.62h-0.66v-9.36l-5.79,9.36h-0.01h-0.65l-0.01-10.62H378.77z M380.33,463.58
				c0.11,0.28,0.3,0.51,0.54,0.69c0.25,0.17,0.53,0.26,0.84,0.26c0.31,0,0.59-0.09,0.84-0.26c0.25-0.17,0.43-0.4,0.54-0.69
				l0.72,0.28c-0.19,0.48-0.49,0.82-0.88,1.03c-0.39,0.21-0.8,0.32-1.21,0.32c-0.42,0-0.82-0.11-1.22-0.32
				c-0.39-0.21-0.69-0.56-0.88-1.03L380.33,463.58z"/>
			<path d="M405.05,465.56v9.96h0.66v1.99h-0.66v-1.33h-7.62v-10.62h0.66v9.96h6.29v-9.96H405.05z"/>
			<path d="M411.17,470.08h4.66v0.66h-4.66v1.29v3.52l4.65-0.01v0.65h-5.31v-10.59h0.66h4.66v0.66h-4.66V470.08z"/>
			<path d="M426.16,465.6v10.58h-0.65v-5.44h-5.35v5.44h-0.66V465.6h0.66v4.48h5.35v-4.48H426.16z"/>
			<path d="M435.95,466.24h-2.76v9.94h-0.66v-9.94h-2.76v-0.66h6.19V466.24z"/>
			<path d="M446.31,468.69c0,0.07,0,0.16,0,0.28c-0.01,0.12-0.01,0.22-0.01,0.29c-0.1,0.99-0.55,1.8-1.37,2.43
				c-0.73,0.56-1.57,0.84-2.51,0.84c-0.44,0-1.09-0.04-1.94-0.11v3.8h-0.66v-10.66c1.43-0.12,2.29-0.17,2.6-0.17
				c1.06-0.08,1.94,0.17,2.64,0.74c0.39,0.32,0.67,0.62,0.84,0.9c0.24,0.39,0.37,0.87,0.4,1.45
				C446.3,468.59,446.31,468.66,446.31,468.69z M445.63,469.01c0.01-0.21,0.01-0.36,0-0.44c-0.05-0.8-0.36-1.42-0.92-1.88
				c-0.61-0.5-1.32-0.72-2.14-0.66c-0.56,0-1.25,0.04-2.08,0.13v2.95c0,0.05,0,0.08,0,0.09c-0.01,0.12-0.01,0.25,0,0.37
				c0,0.04,0,0.08,0,0.11v2.09c1.14,0.09,1.84,0.13,2.08,0.13c0.67,0.04,1.34-0.2,1.99-0.74c0.57-0.45,0.91-1.05,1.02-1.79
				C445.6,469.23,445.62,469.11,445.63,469.01z"/>
		</g>
	</g>
</g>
</svg>
